<?xml version="1.0" encoding="utf-8"?>
<!-- Generator: Adobe Illustrator 21.0.2, SVG Export Plug-In . SVG Version: 6.00 Build 0)  -->
<svg version="1.1" id="CodeSurge" xmlns="http://www.w3.org/2000/svg" xmlns:xlink="http://www.w3.org/1999/xlink" x="0px" y="0px"
	 viewBox="0 0 330 530" style="enable-background:new 0 0 330 530;" xml:space="preserve">
<style type="text/css">
	.st0{fill:#0057B8;fill-opacity:0.85;}
	.st1{fill:#0057B8;fill-opacity:0.7;}
	.st2{fill:#0057B8;fill-opacity:0.6;}
	.st3{fill:#0057B8;fill-opacity:0.5;}
	.st4{fill:#0057B8;fill-opacity:0.9;}
	.st5{fill:#0057B8;}
</style>
<path class="st0" d="M285.5,350v-31.6l27.4,15.8L285.5,350"/>
<path class="st1" d="M313.3,367.1v-31.6l-27.4,15.8L313.3,367.1"/>
<path class="st0" d="M285.5,384v-31.6l27.4,15.8L285.5,384"/>
<path class="st1" d="M313.3,401.1v-31.6l-27.4,15.8L313.3,401.1"/>
<path class="st0" d="M285.5,418v-31.6l27.4,15.8L285.5,418"/>
<path class="st1" d="M313.3,434.8v-31.6L285.9,419L313.3,434.8"/>
<path class="st2" d="M284.5,450.7v-31.6l27.4,15.8L284.5,450.7"/>
<path class="st3" d="M283.2,450.7v-31.6l-27.4,15.8L283.2,450.7"/>
<path class="st2" d="M255.5,467.7v-31.6l27.4,15.8L255.5,467.7"/>
<path class="st3" d="M254.2,467.7v-31.6l-27.4,15.8L254.2,467.7"/>
<path class="st2" d="M226.5,484.7v-31.6l27.4,15.8L226.5,484.7"/>
<path class="st3" d="M225.2,484.7v-31.6l-27.4,15.8L225.2,484.7"/>
<path class="st2" d="M197.5,501.7v-31.6l27.4,15.8L197.5,501.7"/>
<path class="st3" d="M196.2,501.7v-31.6l-27.4,15.8L196.2,501.7"/>
<path class="st2" d="M168.2,518.6V487l27.4,15.8L168.2,518.6"/>
<path class="st3" d="M167,518.6V487l-27.4,15.8L167,518.6"/>
<path class="st1" d="M139,501.7v-31.6l27.4,15.8L139,501.7"/>
<path class="st3" d="M138,501.6V470l-27.4,15.8L138,501.6"/>
<path class="st1" d="M110,484.7v-31.6l27.4,15.8L110,484.7"/>
<path class="st3" d="M109,484.6V453l-27.4,15.8L109,484.6"/>
<path class="st1" d="M81,467.7v-31.6l27.4,15.8L81,467.7"/>
<path class="st3" d="M80,467.6V436l-27.4,15.8L80,467.6"/>
<path class="st1" d="M52,450.7v-31.6l27.4,15.8L52,450.7"/>
<path class="st1" d="M50.8,450.7v-31.6l-27.4,15.8L50.8,450.7"/>
<path class="st1" d="M22.8,433.9v-31.6l27.4,15.8L22.8,433.9"/>
<path class="st3" d="M50.8,417v-31.6l-27.4,15.8L50.8,417"/>
<path class="st1" d="M22.8,400.1v-31.6l27.4,15.8L22.8,400.1"/>
<path class="st2" d="M50.8,383.3v-31.6l-27.4,15.8L50.8,383.3"/>
<path class="st1" d="M22.8,366.9v-31.6l27.4,15.8L22.8,366.9"/>
<path class="st3" d="M50.8,350v-31.6l-27.4,15.8L50.8,350"/>
<path class="st1" d="M22.8,332.1v-31.6l27.4,15.8L22.8,332.1"/>
<path class="st2" d="M50.8,315.3v-31.6l-27.4,15.8L50.8,315.3"/>
<path class="st1" d="M22.8,298.9v-31.6l27.4,15.8L22.8,298.9"/>
<path class="st3" d="M50.8,282v-31.6l-27.4,15.8L50.8,282"/>
<path class="st1" d="M22.8,265.1v-31.6l27.4,15.8L22.8,265.1"/>
<path class="st3" d="M50.8,248v-31.6l-27.4,15.8L50.8,248"/>
<path class="st1" d="M22.8,231.1v-31.6l27.4,15.8L22.8,231.1"/>
<path class="st2" d="M50.8,214.3v-31.6l-27.4,15.8L50.8,214.3"/>
<path class="st1" d="M22.8,197.9v-31.6l27.4,15.8L22.8,197.9"/>
<path class="st3" d="M50.8,181v-31.6l-27.4,15.8L50.8,181"/>
<path class="st1" d="M22.8,164.1v-31.6l27.4,15.8L22.8,164.1"/>
<path class="st3" d="M50.8,147v-31.6l-27.4,15.8L50.8,147"/>
<path class="st1" d="M22.8,130.1V98.5l27.4,15.8L22.8,130.1"/>
<path class="st2" d="M50.8,113.3V81.7L23.5,97.5L50.8,113.3"/>
<path class="st0" d="M52,113.3V81.7l27.4,15.8L52,113.3"/>
<path class="st4" d="M80,96.4V64.8L52.6,80.6L80,96.4"/>
<path class="st0" d="M81,96.3V64.7l27.4,15.8L81,96.3"/>
<path class="st4" d="M109,79.4V47.8L81.6,63.6L109,79.4"/>
<path class="st0" d="M110,79.3V47.7l27.4,15.8L110,79.3"/>
<path class="st4" d="M138,62.4V30.8l-27.4,15.8L138,62.4"/>
<path class="st0" d="M139,62.3V30.7l27.4,15.8L139,62.3"/>
<path class="st4" d="M167,45.4V13.8l-27.4,15.8L167,45.4"/>
<path class="st5" d="M168.2,45.4V13.8l27.4,15.8L168.2,45.4"/>
<path class="st4" d="M196.2,62.3V30.7l-27.4,15.8L196.2,62.3"/>
<path class="st5" d="M197.5,62.3V30.6l27.4,15.8L197.5,62.3"/>
<path class="st4" d="M225.2,79.3V47.7l-27.4,15.8L225.2,79.3"/>
<path class="st5" d="M226.5,79.3V47.6l27.4,15.8L226.5,79.3"/>
<path class="st4" d="M254.2,96.3V64.7l-27.4,15.8L254.2,96.3"/>
<path class="st5" d="M255.5,96.3V64.6l27.4,15.8L255.5,96.3"/>
<path class="st4" d="M283.2,113.3V81.7l-27.4,15.8L283.2,113.3"/>
<path class="st5" d="M284.5,113.3V81.6l27.4,15.8L284.5,113.3"/>
<path class="st3" d="M312.8,130V98.3l-27.4,15.8L312.8,130"/>
<path class="st1" d="M284.8,147.1v-31.6l27.4,15.8L284.8,147.1"/>
<path class="st3" d="M312.8,164v-31.6l-27.4,15.8L312.8,164"/>
<path class="st1" d="M284.8,180.9v-31.6l27.4,15.8L284.8,180.9"/>
<path class="st2" d="M312.8,197.3v-31.6l-27.4,15.8L312.8,197.3"/>
<path class="st0" d="M284,214.3v-31.6l27.4,15.8L284,214.3"/>
<path class="st4" d="M283,214.4v-31.6l-27.4,15.8L283,214.4"/>
<path class="st0" d="M255,231.3v-31.6l27.4,15.8L255,231.3"/>
<path class="st4" d="M254,231.4v-31.6l-27.4,15.8L254,231.4"/>
<path class="st1" d="M226.8,214.1v-31.6l27.4,15.8L226.8,214.1"/>
<path class="st3" d="M254.8,197v-31.6l-27.4,15.8L254.8,197"/>
<path class="st1" d="M226.8,180.1v-31.6l27.4,15.8L226.8,180.1"/>
<path class="st2" d="M254.8,163.3v-31.6l-27.4,15.8L254.8,163.3"/>
<path class="st5" d="M227.5,146.3v-31.6l27.4,15.8L227.5,146.3"/>
<path class="st4" d="M226.2,146.3v-31.6l-27.4,15.8L226.2,146.3"/>
<path class="st5" d="M198.5,129.3V97.6l27.4,15.8L198.5,129.3"/>
<path class="st4" d="M197.2,129.3V97.7l-27.4,15.8L197.2,129.3"/>
<path class="st5" d="M169.2,112.4V80.8l27.4,15.8L169.2,112.4"/>
<path class="st4" d="M168,112.4V80.8l-27.4,15.8L168,112.4"/>
<path class="st0" d="M140,129.3V97.7l27.4,15.8L140,129.3"/>
<path class="st4" d="M139,129.4V97.8l-27.4,15.8L139,129.4"/>
<path class="st0" d="M111,146.3v-31.6l27.4,15.8L111,146.3"/>
<path class="st4" d="M110,146.4v-31.6l-27.4,15.8L110,146.4"/>
<path class="st1" d="M81.8,163.1v-31.6l27.4,15.8L81.8,163.1"/>
<path class="st3" d="M109.8,180v-31.6l-27.4,15.8L109.8,180"/>
<path class="st1" d="M81.8,196.9v-31.6l27.4,15.8L81.8,196.9"/>
<path class="st2" d="M109.8,213.3v-31.6l-27.4,15.8L109.8,213.3"/>
<path class="st1" d="M81.8,230.1v-31.6l27.4,15.8L81.8,230.1"/>
<path class="st1" d="M109.8,246.7v-31.6l-27.4,15.8L109.8,246.7"/>
<path class="st1" d="M111,246.7v-31.6l27.4,15.8L111,246.7"/>
<path class="st3" d="M139,263.6V232l-27.4,15.8L139,263.6"/>
<path class="st1" d="M140,263.7v-31.6l27.4,15.8L140,263.7"/>
<path class="st3" d="M168,280.6V249l-27.4,15.8L168,280.6"/>
<path class="st1" d="M169,280.7v-31.6l27.4,15.8L169,280.7"/>
<path class="st3" d="M197,297.6V266l-27.4,15.8L197,297.6"/>
<path class="st1" d="M198,297.7v-31.6l27.4,15.8L198,297.7"/>
<path class="st3" d="M226,314.6V283l-27.4,15.8L226,314.6"/>
<path class="st1" d="M228,314.7v-31.6l27.4,15.8L228,314.7"/>
<path class="st3" d="M255.8,332v-31.6l-27.4,15.8L255.8,332"/>
<path class="st1" d="M227.8,349.1v-31.6l27.4,15.8L227.8,349.1"/>
<path class="st3" d="M255.8,366v-31.6l-27.4,15.8L255.8,366"/>
<path class="st1" d="M227.8,382.9v-31.6l27.4,15.8L227.8,382.9"/>
<path class="st2" d="M255.8,399.3v-31.6l-27.4,15.8L255.8,399.3"/>
<path class="st2" d="M227.5,415.7v-31.6l27.4,15.8L227.5,415.7"/>
<path class="st3" d="M226.2,415.7v-31.6l-27.4,15.8L226.2,415.7"/>
<path class="st2" d="M198.5,432.7v-31.6l27.4,15.8L198.5,432.7"/>
<path class="st3" d="M197.2,432.7v-31.6l-27.4,15.8L197.2,432.7"/>
<path class="st2" d="M169.2,449.6V418l27.4,15.8L169.2,449.6"/>
<path class="st3" d="M168,449.6V418l-27.4,15.8L168,449.6"/>
<path class="st1" d="M140,432.7v-31.6l27.4,15.8L140,432.7"/>
<path class="st3" d="M139,432.6V401l-27.4,15.8L139,432.6"/>
<path class="st1" d="M111,415.7v-31.6l27.4,15.8L111,415.7"/>
<path class="st3" d="M110,415.6V384l-27.4,15.8L110,415.6"/>
<path class="st1" d="M82.8,398.1v-31.6l27.4,15.8L82.8,398.1"/>
<path class="st2" d="M110.8,381.3v-31.6l-27.4,15.8L110.8,381.3"/>
<path class="st1" d="M82.8,364.9v-31.6l27.4,15.8L82.8,364.9"/>
<path class="st3" d="M110.8,348v-31.6l-27.4,15.8L110.8,348"/>
<path class="st1" d="M82.8,331.1v-31.6l27.4,15.8L82.8,331.1"/>
</svg>
