<svg xmlns="http://www.w3.org/2000/svg" xmlns:xlink="http://www.w3.org/1999/xlink" width="290.5" height="504.8" viewBox="0 0 290.5 504.8">
  <defs>
    <style>
      .cls-1 {
        fill: none;
      }

      .cls-2 {
        clip-path: url(#clip-path);
      }

      .cls-3 {
        fill: rgba(0,87,184,0.85);
      }

      .cls-4 {
        fill: rgba(0,87,184,0.7);
      }

      .cls-5 {
        fill: rgba(0,87,184,0.6);
      }

      .cls-6 {
        fill: rgba(0,87,184,0.5);
      }

      .cls-7 {
        fill: rgba(0,87,184,0.9);
      }

      .cls-8 {
        fill: #0057b8;
      }
    </style>
    <clipPath id="clip-path">
      <rect class="cls-1" width="290.5" height="504.8"/>
    </clipPath>
  </defs>
  <g id="codeSurge" class="cls-2">
    <path id="Path_120" data-name="Path 120" class="cls-3" d="M285.5,350V318.4l27.4,15.8L285.5,350" transform="translate(-22.8 -13.8)"/>
    <path id="Path_121" data-name="Path 121" class="cls-4" d="M313.3,367.1V335.5l-27.4,15.8,27.4,15.8" transform="translate(-22.8 -13.8)"/>
    <path id="Path_122" data-name="Path 122" class="cls-3" d="M285.5,384V352.4l27.4,15.8L285.5,384" transform="translate(-22.8 -13.8)"/>
    <path id="Path_123" data-name="Path 123" class="cls-4" d="M313.3,401.1V369.5l-27.4,15.8,27.4,15.8" transform="translate(-22.8 -13.8)"/>
    <path id="Path_124" data-name="Path 124" class="cls-3" d="M285.5,418V386.4l27.4,15.8L285.5,418" transform="translate(-22.8 -13.8)"/>
    <path id="Path_125" data-name="Path 125" class="cls-4" d="M313.3,434.8V403.2L285.9,419l27.4,15.8" transform="translate(-22.8 -13.8)"/>
    <path id="Path_126" data-name="Path 126" class="cls-5" d="M284.5,450.7V419.1l27.4,15.8-27.4,15.8" transform="translate(-22.8 -13.8)"/>
    <path id="Path_127" data-name="Path 127" class="cls-6" d="M283.2,450.7V419.1l-27.4,15.8,27.4,15.8" transform="translate(-22.8 -13.8)"/>
    <path id="Path_128" data-name="Path 128" class="cls-5" d="M255.5,467.7V436.1l27.4,15.8-27.4,15.8" transform="translate(-22.8 -13.8)"/>
    <path id="Path_129" data-name="Path 129" class="cls-6" d="M254.2,467.7V436.1l-27.4,15.8,27.4,15.8" transform="translate(-22.8 -13.8)"/>
    <path id="Path_130" data-name="Path 130" class="cls-5" d="M226.5,484.7V453.1l27.4,15.8-27.4,15.8" transform="translate(-22.8 -13.8)"/>
    <path id="Path_131" data-name="Path 131" class="cls-6" d="M225.2,484.7V453.1l-27.4,15.8,27.4,15.8" transform="translate(-22.8 -13.8)"/>
    <path id="Path_132" data-name="Path 132" class="cls-5" d="M197.5,501.7V470.1l27.4,15.8-27.4,15.8" transform="translate(-22.8 -13.8)"/>
    <path id="Path_133" data-name="Path 133" class="cls-6" d="M196.2,501.7V470.1l-27.4,15.8,27.4,15.8" transform="translate(-22.8 -13.8)"/>
    <path id="Path_134" data-name="Path 134" class="cls-5" d="M168.2,518.6V487l27.4,15.8-27.4,15.8" transform="translate(-22.8 -13.8)"/>
    <path id="Path_135" data-name="Path 135" class="cls-6" d="M167,518.6V487l-27.4,15.8L167,518.6" transform="translate(-22.8 -13.8)"/>
    <path id="Path_136" data-name="Path 136" class="cls-4" d="M139,501.7V470.1l27.4,15.8L139,501.7" transform="translate(-22.8 -13.8)"/>
    <path id="Path_137" data-name="Path 137" class="cls-6" d="M138,501.6V470l-27.4,15.8L138,501.6" transform="translate(-22.8 -13.8)"/>
    <path id="Path_138" data-name="Path 138" class="cls-4" d="M110,484.7V453.1l27.4,15.8L110,484.7" transform="translate(-22.8 -13.8)"/>
    <path id="Path_139" data-name="Path 139" class="cls-6" d="M109,484.6V453L81.6,468.8,109,484.6" transform="translate(-22.8 -13.8)"/>
    <path id="Path_140" data-name="Path 140" class="cls-4" d="M81,467.7V436.1l27.4,15.8L81,467.7" transform="translate(-22.8 -13.8)"/>
    <path id="Path_141" data-name="Path 141" class="cls-6" d="M80,467.6V436L52.6,451.8,80,467.6" transform="translate(-22.8 -13.8)"/>
    <path id="Path_142" data-name="Path 142" class="cls-4" d="M52,450.7V419.1l27.4,15.8L52,450.7" transform="translate(-22.8 -13.8)"/>
    <path id="Path_143" data-name="Path 143" class="cls-4" d="M50.8,450.7V419.1L23.4,434.9l27.4,15.8" transform="translate(-22.8 -13.8)"/>
    <path id="Path_144" data-name="Path 144" class="cls-4" d="M22.8,433.9V402.3l27.4,15.8L22.8,433.9" transform="translate(-22.8 -13.8)"/>
    <path id="Path_145" data-name="Path 145" class="cls-6" d="M50.8,417V385.4L23.4,401.2,50.8,417" transform="translate(-22.8 -13.8)"/>
    <path id="Path_146" data-name="Path 146" class="cls-4" d="M22.8,400.1V368.5l27.4,15.8L22.8,400.1" transform="translate(-22.8 -13.8)"/>
    <path id="Path_147" data-name="Path 147" class="cls-5" d="M50.8,383.3V351.7L23.4,367.5l27.4,15.8" transform="translate(-22.8 -13.8)"/>
    <path id="Path_148" data-name="Path 148" class="cls-4" d="M22.8,366.9V335.3l27.4,15.8L22.8,366.9" transform="translate(-22.8 -13.8)"/>
    <path id="Path_149" data-name="Path 149" class="cls-6" d="M50.8,350V318.4L23.4,334.2,50.8,350" transform="translate(-22.8 -13.8)"/>
    <path id="Path_150" data-name="Path 150" class="cls-4" d="M22.8,332.1V300.5l27.4,15.8L22.8,332.1" transform="translate(-22.8 -13.8)"/>
    <path id="Path_151" data-name="Path 151" class="cls-5" d="M50.8,315.3V283.7L23.4,299.5l27.4,15.8" transform="translate(-22.8 -13.8)"/>
    <path id="Path_152" data-name="Path 152" class="cls-4" d="M22.8,298.9V267.3l27.4,15.8L22.8,298.9" transform="translate(-22.8 -13.8)"/>
    <path id="Path_153" data-name="Path 153" class="cls-6" d="M50.8,282V250.4L23.4,266.2,50.8,282" transform="translate(-22.8 -13.8)"/>
    <path id="Path_154" data-name="Path 154" class="cls-4" d="M22.8,265.1V233.5l27.4,15.8L22.8,265.1" transform="translate(-22.8 -13.8)"/>
    <path id="Path_155" data-name="Path 155" class="cls-6" d="M50.8,248V216.4L23.4,232.2,50.8,248" transform="translate(-22.8 -13.8)"/>
    <path id="Path_156" data-name="Path 156" class="cls-4" d="M22.8,231.1V199.5l27.4,15.8L22.8,231.1" transform="translate(-22.8 -13.8)"/>
    <path id="Path_157" data-name="Path 157" class="cls-5" d="M50.8,214.3V182.7L23.4,198.5l27.4,15.8" transform="translate(-22.8 -13.8)"/>
    <path id="Path_158" data-name="Path 158" class="cls-4" d="M22.8,197.9V166.3l27.4,15.8L22.8,197.9" transform="translate(-22.8 -13.8)"/>
    <path id="Path_159" data-name="Path 159" class="cls-6" d="M50.8,181V149.4L23.4,165.2,50.8,181" transform="translate(-22.8 -13.8)"/>
    <path id="Path_160" data-name="Path 160" class="cls-4" d="M22.8,164.1V132.5l27.4,15.8L22.8,164.1" transform="translate(-22.8 -13.8)"/>
    <path id="Path_161" data-name="Path 161" class="cls-6" d="M50.8,147V115.4L23.4,131.2,50.8,147" transform="translate(-22.8 -13.8)"/>
    <path id="Path_162" data-name="Path 162" class="cls-4" d="M22.8,130.1V98.5l27.4,15.8L22.8,130.1" transform="translate(-22.8 -13.8)"/>
    <path id="Path_163" data-name="Path 163" class="cls-5" d="M50.8,113.3V81.7L23.5,97.5l27.3,15.8" transform="translate(-22.8 -13.8)"/>
    <path id="Path_164" data-name="Path 164" class="cls-3" d="M52,113.3V81.7L79.4,97.5,52,113.3" transform="translate(-22.8 -13.8)"/>
    <path id="Path_165" data-name="Path 165" class="cls-7" d="M80,96.4V64.8L52.6,80.6,80,96.4" transform="translate(-22.8 -13.8)"/>
    <path id="Path_166" data-name="Path 166" class="cls-3" d="M81,96.3V64.7l27.4,15.8L81,96.3" transform="translate(-22.8 -13.8)"/>
    <path id="Path_167" data-name="Path 167" class="cls-7" d="M109,79.4V47.8L81.6,63.6,109,79.4" transform="translate(-22.8 -13.8)"/>
    <path id="Path_168" data-name="Path 168" class="cls-3" d="M110,79.3V47.7l27.4,15.8L110,79.3" transform="translate(-22.8 -13.8)"/>
    <path id="Path_169" data-name="Path 169" class="cls-7" d="M138,62.4V30.8L110.6,46.6,138,62.4" transform="translate(-22.8 -13.8)"/>
    <path id="Path_170" data-name="Path 170" class="cls-3" d="M139,62.3V30.7l27.4,15.8L139,62.3" transform="translate(-22.8 -13.8)"/>
    <path id="Path_171" data-name="Path 171" class="cls-7" d="M167,45.4V13.8L139.6,29.6,167,45.4" transform="translate(-22.8 -13.8)"/>
    <path id="Path_172" data-name="Path 172" class="cls-8" d="M168.2,45.4V13.8l27.4,15.8L168.2,45.4" transform="translate(-22.8 -13.8)"/>
    <path id="Path_173" data-name="Path 173" class="cls-7" d="M196.2,62.3V30.7L168.8,46.5l27.4,15.8" transform="translate(-22.8 -13.8)"/>
    <path id="Path_174" data-name="Path 174" class="cls-8" d="M197.5,62.3V30.6l27.4,15.8L197.5,62.3" transform="translate(-22.8 -13.8)"/>
    <path id="Path_175" data-name="Path 175" class="cls-7" d="M225.2,79.3V47.7L197.8,63.5l27.4,15.8" transform="translate(-22.8 -13.8)"/>
    <path id="Path_176" data-name="Path 176" class="cls-8" d="M226.5,79.3V47.6l27.4,15.8L226.5,79.3" transform="translate(-22.8 -13.8)"/>
    <path id="Path_177" data-name="Path 177" class="cls-7" d="M254.2,96.3V64.7L226.8,80.5l27.4,15.8" transform="translate(-22.8 -13.8)"/>
    <path id="Path_178" data-name="Path 178" class="cls-8" d="M255.5,96.3V64.6l27.4,15.8L255.5,96.3" transform="translate(-22.8 -13.8)"/>
    <path id="Path_179" data-name="Path 179" class="cls-7" d="M283.2,113.3V81.7L255.8,97.5l27.4,15.8" transform="translate(-22.8 -13.8)"/>
    <path id="Path_180" data-name="Path 180" class="cls-8" d="M284.5,113.3V81.6l27.4,15.8-27.4,15.9" transform="translate(-22.8 -13.8)"/>
    <path id="Path_181" data-name="Path 181" class="cls-6" d="M312.8,130V98.3l-27.4,15.8L312.8,130" transform="translate(-22.8 -13.8)"/>
    <path id="Path_182" data-name="Path 182" class="cls-4" d="M284.8,147.1V115.5l27.4,15.8-27.4,15.8" transform="translate(-22.8 -13.8)"/>
    <path id="Path_183" data-name="Path 183" class="cls-6" d="M312.8,164V132.4l-27.4,15.8L312.8,164" transform="translate(-22.8 -13.8)"/>
    <path id="Path_184" data-name="Path 184" class="cls-4" d="M284.8,180.9V149.3l27.4,15.8-27.4,15.8" transform="translate(-22.8 -13.8)"/>
    <path id="Path_185" data-name="Path 185" class="cls-5" d="M312.8,197.3V165.7l-27.4,15.8,27.4,15.8" transform="translate(-22.8 -13.8)"/>
    <path id="Path_186" data-name="Path 186" class="cls-3" d="M284,214.3V182.7l27.4,15.8L284,214.3" transform="translate(-22.8 -13.8)"/>
    <path id="Path_187" data-name="Path 187" class="cls-7" d="M283,214.4V182.8l-27.4,15.8L283,214.4" transform="translate(-22.8 -13.8)"/>
    <path id="Path_188" data-name="Path 188" class="cls-3" d="M255,231.3V199.7l27.4,15.8L255,231.3" transform="translate(-22.8 -13.8)"/>
    <path id="Path_189" data-name="Path 189" class="cls-7" d="M254,231.4V199.8l-27.4,15.8L254,231.4" transform="translate(-22.8 -13.8)"/>
    <path id="Path_190" data-name="Path 190" class="cls-4" d="M226.8,214.1V182.5l27.4,15.8-27.4,15.8" transform="translate(-22.8 -13.8)"/>
    <path id="Path_191" data-name="Path 191" class="cls-6" d="M254.8,197V165.4l-27.4,15.8L254.8,197" transform="translate(-22.8 -13.8)"/>
    <path id="Path_192" data-name="Path 192" class="cls-4" d="M226.8,180.1V148.5l27.4,15.8-27.4,15.8" transform="translate(-22.8 -13.8)"/>
    <path id="Path_193" data-name="Path 193" class="cls-5" d="M254.8,163.3V131.7l-27.4,15.8,27.4,15.8" transform="translate(-22.8 -13.8)"/>
    <path id="Path_194" data-name="Path 194" class="cls-8" d="M227.5,146.3V114.7l27.4,15.8-27.4,15.8" transform="translate(-22.8 -13.8)"/>
    <path id="Path_195" data-name="Path 195" class="cls-7" d="M226.2,146.3V114.7l-27.4,15.8,27.4,15.8" transform="translate(-22.8 -13.8)"/>
    <path id="Path_196" data-name="Path 196" class="cls-8" d="M198.5,129.3V97.6l27.4,15.8-27.4,15.9" transform="translate(-22.8 -13.8)"/>
    <path id="Path_197" data-name="Path 197" class="cls-7" d="M197.2,129.3V97.7l-27.4,15.8,27.4,15.8" transform="translate(-22.8 -13.8)"/>
    <path id="Path_198" data-name="Path 198" class="cls-8" d="M169.2,112.4V80.8l27.4,15.8-27.4,15.8" transform="translate(-22.8 -13.8)"/>
    <path id="Path_199" data-name="Path 199" class="cls-7" d="M168,112.4V80.8L140.6,96.6,168,112.4" transform="translate(-22.8 -13.8)"/>
    <path id="Path_200" data-name="Path 200" class="cls-3" d="M140,129.3V97.7l27.4,15.8L140,129.3" transform="translate(-22.8 -13.8)"/>
    <path id="Path_201" data-name="Path 201" class="cls-7" d="M139,129.4V97.8l-27.4,15.8L139,129.4" transform="translate(-22.8 -13.8)"/>
    <path id="Path_202" data-name="Path 202" class="cls-3" d="M111,146.3V114.7l27.4,15.8L111,146.3" transform="translate(-22.8 -13.8)"/>
    <path id="Path_203" data-name="Path 203" class="cls-7" d="M110,146.4V114.8L82.6,130.6,110,146.4" transform="translate(-22.8 -13.8)"/>
    <path id="Path_204" data-name="Path 204" class="cls-4" d="M81.8,163.1V131.5l27.4,15.8L81.8,163.1" transform="translate(-22.8 -13.8)"/>
    <path id="Path_205" data-name="Path 205" class="cls-6" d="M109.8,180V148.4L82.4,164.2,109.8,180" transform="translate(-22.8 -13.8)"/>
    <path id="Path_206" data-name="Path 206" class="cls-4" d="M81.8,196.9V165.3l27.4,15.8L81.8,196.9" transform="translate(-22.8 -13.8)"/>
    <path id="Path_207" data-name="Path 207" class="cls-5" d="M109.8,213.3V181.7L82.4,197.5l27.4,15.8" transform="translate(-22.8 -13.8)"/>
    <path id="Path_208" data-name="Path 208" class="cls-4" d="M81.8,230.1V198.5l27.4,15.8L81.8,230.1" transform="translate(-22.8 -13.8)"/>
    <path id="Path_209" data-name="Path 209" class="cls-4" d="M109.8,246.7V215.1L82.4,230.9l27.4,15.8" transform="translate(-22.8 -13.8)"/>
    <path id="Path_210" data-name="Path 210" class="cls-4" d="M111,246.7V215.1l27.4,15.8L111,246.7" transform="translate(-22.8 -13.8)"/>
    <path id="Path_211" data-name="Path 211" class="cls-6" d="M139,263.6V232l-27.4,15.8L139,263.6" transform="translate(-22.8 -13.8)"/>
    <path id="Path_212" data-name="Path 212" class="cls-4" d="M140,263.7V232.1l27.4,15.8L140,263.7" transform="translate(-22.8 -13.8)"/>
    <path id="Path_213" data-name="Path 213" class="cls-6" d="M168,280.6V249l-27.4,15.8L168,280.6" transform="translate(-22.8 -13.8)"/>
    <path id="Path_214" data-name="Path 214" class="cls-4" d="M169,280.7V249.1l27.4,15.8L169,280.7" transform="translate(-22.8 -13.8)"/>
    <path id="Path_215" data-name="Path 215" class="cls-6" d="M197,297.6V266l-27.4,15.8L197,297.6" transform="translate(-22.8 -13.8)"/>
    <path id="Path_216" data-name="Path 216" class="cls-4" d="M198,297.7V266.1l27.4,15.8L198,297.7" transform="translate(-22.8 -13.8)"/>
    <path id="Path_217" data-name="Path 217" class="cls-6" d="M226,314.6V283l-27.4,15.8L226,314.6" transform="translate(-22.8 -13.8)"/>
    <path id="Path_218" data-name="Path 218" class="cls-4" d="M228,314.7V283.1l27.4,15.8L228,314.7" transform="translate(-22.8 -13.8)"/>
    <path id="Path_219" data-name="Path 219" class="cls-6" d="M255.8,332V300.4l-27.4,15.8L255.8,332" transform="translate(-22.8 -13.8)"/>
    <path id="Path_220" data-name="Path 220" class="cls-4" d="M227.8,349.1V317.5l27.4,15.8-27.4,15.8" transform="translate(-22.8 -13.8)"/>
    <path id="Path_221" data-name="Path 221" class="cls-6" d="M255.8,366V334.4l-27.4,15.8L255.8,366" transform="translate(-22.8 -13.8)"/>
    <path id="Path_222" data-name="Path 222" class="cls-4" d="M227.8,382.9V351.3l27.4,15.8-27.4,15.8" transform="translate(-22.8 -13.8)"/>
    <path id="Path_223" data-name="Path 223" class="cls-5" d="M255.8,399.3V367.7l-27.4,15.8,27.4,15.8" transform="translate(-22.8 -13.8)"/>
    <path id="Path_224" data-name="Path 224" class="cls-5" d="M227.5,415.7V384.1l27.4,15.8-27.4,15.8" transform="translate(-22.8 -13.8)"/>
    <path id="Path_225" data-name="Path 225" class="cls-6" d="M226.2,415.7V384.1l-27.4,15.8,27.4,15.8" transform="translate(-22.8 -13.8)"/>
    <path id="Path_226" data-name="Path 226" class="cls-5" d="M198.5,432.7V401.1l27.4,15.8-27.4,15.8" transform="translate(-22.8 -13.8)"/>
    <path id="Path_227" data-name="Path 227" class="cls-6" d="M197.2,432.7V401.1l-27.4,15.8,27.4,15.8" transform="translate(-22.8 -13.8)"/>
    <path id="Path_228" data-name="Path 228" class="cls-5" d="M169.2,449.6V418l27.4,15.8-27.4,15.8" transform="translate(-22.8 -13.8)"/>
    <path id="Path_229" data-name="Path 229" class="cls-6" d="M168,449.6V418l-27.4,15.8L168,449.6" transform="translate(-22.8 -13.8)"/>
    <path id="Path_230" data-name="Path 230" class="cls-4" d="M140,432.7V401.1l27.4,15.8L140,432.7" transform="translate(-22.8 -13.8)"/>
    <path id="Path_231" data-name="Path 231" class="cls-6" d="M139,432.6V401l-27.4,15.8L139,432.6" transform="translate(-22.8 -13.8)"/>
    <path id="Path_232" data-name="Path 232" class="cls-4" d="M111,415.7V384.1l27.4,15.8L111,415.7" transform="translate(-22.8 -13.8)"/>
    <path id="Path_233" data-name="Path 233" class="cls-6" d="M110,415.6V384L82.6,399.8,110,415.6" transform="translate(-22.8 -13.8)"/>
    <path id="Path_234" data-name="Path 234" class="cls-4" d="M82.8,398.1V366.5l27.4,15.8L82.8,398.1" transform="translate(-22.8 -13.8)"/>
    <path id="Path_235" data-name="Path 235" class="cls-5" d="M110.8,381.3V349.7L83.4,365.5l27.4,15.8" transform="translate(-22.8 -13.8)"/>
    <path id="Path_236" data-name="Path 236" class="cls-4" d="M82.8,364.9V333.3l27.4,15.8L82.8,364.9" transform="translate(-22.8 -13.8)"/>
    <path id="Path_237" data-name="Path 237" class="cls-6" d="M110.8,348V316.4L83.4,332.2,110.8,348" transform="translate(-22.8 -13.8)"/>
    <path id="Path_238" data-name="Path 238" class="cls-4" d="M82.8,331.1V299.5l27.4,15.8L82.8,331.1" transform="translate(-22.8 -13.8)"/>
  </g>
</svg>
