<?xml version="1.0" encoding="utf-8"?>
<!DOCTYPE svg PUBLIC "-//W3C//DTD SVG 1.1//EN" "http://www.w3.org/Graphics/SVG/1.1/DTD/svg11.dtd">
<svg class="moon" version="1.1" xmlns="http://www.w3.org/2000/svg" xmlns:xlink="http://www.w3.org/1999/xlink" x="0px" y="0px" viewBox="0 0 1000 1000" enable-background="new 0 0 1000 1000" xml:space="preserve">
<g><g><g><path d="M419.8,110.7c0.9-0.9,1.9-1.8,3.1-2.5C421.3,108.9,420.4,109.7,419.8,110.7z"/><path d="M182.1,231.8L182.1,231.8c0.4-0.4,0.9-0.6,1.3-0.8C183,231.2,182.5,231.5,182.1,231.8z"/><path d="M312.6,495.5c3.4-0.2,4.5-1.1,4.5-4.2c1.6-3.7,3.9-7.1,4.4-11.2c3.6-1.7,7.1-3.2,9.2-7.1c0.5-0.9,1.3-1.4,2.2-1.7c-0.9,0.2-1.9,0.4-3,0.5c-3,0.2-4.3-2.5-6.1-4.2c-1.5-1.5-3.3-2.1-5.1-2.2c-2.3-0.2-3.6-1.3-4.1-3.2c-0.6-2.1,0.5-3.6,2.3-4.7c2.2-1.4,4.9-3,4.1-6c-0.4-1.4-2.2-2.5-1.1-4.4c-0.6,2.7-2.3,3.2-4.7,2.9c-1.7-0.2-2.6-1.4-3.8-2.3c-4.2-2.8-10.2-1.9-13.4,1.9c-6.5,7.9-12,9.7-21.7,6.7c-3.1-1-6.3-1.4-9.5-1.2c0.2,0.3,0.4,0.6,0.4,1c0.1,0.5,0,0.8,0,1.2c4.8,1.9,3.3,7.6,5.5,11.6c4-3.8,7.7-3.4,11.6,0.4c1.4,1.4,3.7,1.7,5.7,2.6c1.7,0.8,3.9,1.3,3.9,3.6c-0.1,1.9-2,2.7-3.6,3.3c-2.2,0.8-3.9-0.4-4.6-2.3c-1.2-2.9-2.7-4.6-6-3c-0.7,0.3-1.6,0.8-1.7,1.3c-0.2,1.7,1.1,4.2-2.1,4.2c-3,0.1-6.3,1.2-8.8-1.2c-2.9-2.8-6.8-2.8-10.9-5.5c0.8,1.9,1.1,2.8,1.4,3.6c0.7,2,5.3,3.4,1.4,6.2c-3.2,2.3-8,0.8-9.9-2.7c-0.2-0.3-0.3-0.7-0.4-1.1c-0.7-3.3-0.4-8.1-4.3-8.4c-1.5-0.1-2.7,0.4-3.8,1.2c-0.2,0.9-0.2,1.9-0.1,3.1c0.1,1.1-1,2-1.4,3.1c-0.9,2.6-0.3,4.4,2.5,5.2c2.4,0.7,4.7,1.6,7,2.4c3.9,1.5,4.4,4.4,1.2,7.3c-1.4,1.3-3,2.2-4,4c7.2,0,7.3,0,7.7,7.7c0.2,3.2,2,4.8,4.7,5.7c2.6,0.9,5,2.1,7.4,3.5c-0.2-5.5,1.9-6.3,9.1-5.7c7.6,0.6,15.6,2.1,22-4.4c1.2-1.2,2.8-2.3,4.6-1.6c2.2,0.9,0.7,3,1.3,4.5c0,0.1,0,0.2,0.1,0.3C302.8,500.4,306.3,495.9,312.6,495.5z"/><path d="M302.7,508.9c0.1,0.5,0.3,0.9,0.5,1.3c0.1-1.2,0-2.5-0.5-4C302.7,507.2,302.5,508,302.7,508.9z"/><path d="M326.1,529.3c-0.9,0.8-1.8,1.3-2.8,1.5c0.3,0,0.6,0,0.9,0c3.5-0.5,5.7,1.5,6.8,4.7c1.1,3,1.6,6.3,3.9,8.7c-0.9-6.2,2.4-10.5,8.2-11.1c-2.5-0.6-4.9-2.5-7-3.8C332.6,527,329.8,526.1,326.1,529.3z"/><path d="M347.7,532.7c-0.5,0.2-0.9,0.4-1.4,0.5c0.2,0,0.3,0,0.5,0c3,0.4,6.3,1.1,8.5,2.9c3,2.5,5.8,2.9,8.9,1.8c-0.8-0.5-1.7-1-2.3-1.6C358,531.9,353.8,529.7,347.7,532.7z"/><path d="M364.2,538c0.1,0,0.1,0.1,0.2,0.1c0.2,0.1,0.3,0.1,0.4,0c0,0,0,0,0,0c-0.1,0-0.2,0-0.4-0.1C364.3,537.9,364.3,537.9,364.2,538z"/><path d="M434.2,683.8c-0.5-0.2-0.9-0.3-1.4-0.5c-0.4,0.1-0.8,0.2-1.2,0.2c-1.3,0.2-2.5,0.7-3.7,1.4c0,0.4,0.1,0.7,0.1,1.1c0.1,1.8,1,3.3,2.7,4c2.5,1,5.6,3.3,7.4-0.2C440,686.4,437,684.8,434.2,683.8z"/><path d="M313.4,526.1c1.9-0.4,3.7,0.6,4.8,2.2c0.6,0.8,1.2,1.3,1.8,1.7c-0.5-0.5-1-1.2-1.5-2.2C317.6,525.6,315.3,525,313.4,526.1z"/><path d="M418,326.9c0.3-0.5,0.6-0.9,0.5-1c-4.9-5.9,2.5-15.1-5.5-20.2c-2.6-1.7-1.4-2.6,0.8-3.8c2-1,6.8-0.1,5.7-2.8c-1.4-3.7-0.9-8.8-5.2-10.9c-3.5-1.7-7.2-5.7-10.7,0.9c-1,2-6.2,0.9-7.9,4.4c-0.6,5.2-3.8,8.8-6.9,12.5c0.1,0.2,0.2,0.3,0.3,0.5c0.8,2.7-0.4,5.3-1,7.8c-0.7,3-2.9,4.3-6.1,3.9c-6.1-0.7-8.6,2.1-7,8.1c0.4,1.6,1.5,3.1,0,4.7c2.9,1.1,5.5,1.2,7-3.2c1.7-1.3,3.5-1.9,5.7-1.7c5.2,2.5,0.5,4.7-0.2,7.1c-0.3,0.1-0.6,0.2-0.9,0.4c-2.2,0.6-3.6,1.7-4.4,3.1c0.7,2.5,0.5,5.3,0.5,8c0,0,0,0,0,0c1-4.8,4.8-7.4,9.6-6.7c3.7,0.5,5.9,4.5,5.5,9.6c-0.3,3.1,0,6.4-3.3,8.9c4.3,0.4,3.3-2.7,3.3-4c-0.1-4.1,0.7-7.8,3.2-11c1.3-1.6,1.1-2.9,0.2-4.7c-2.1-4-1.3-7.7,2.7-9C408.3,326.3,413.3,323.8,418,326.9z"/><path d="M301.1,520.8c0,1,0.1,2,0.1,2.9c0,0.8,0.1,1.5,0.2,2.1c0-0.7,0-1.3,0.1-2C301.6,522.4,301.4,521.5,301.1,520.8z"/><path d="M303,512.9c0.8-1,0.6-1.8,0.2-2.6c-0.2,2.8-1.9,5-4.9,6.8c-1.1,0.6-1.8,2-2.2,3.5c2.4-1,4.2-1.5,5,0.2C301,518,301.1,515.3,303,512.9z"/><path d="M309.9,529.3c0.6-0.3,1.2-0.8,1.8-1.6c0.5-0.7,1.1-1.3,1.7-1.6c-0.2,0.1-0.4,0-0.7,0.1C311.7,526.5,310.7,527.8,309.9,529.3z"/><path d="M304.1,528.2c-1.7-0.2-2.4-1.1-2.7-2.4c0,3.3,0.6,6.7,5.2,8c1.3,0.3,1.2,2.4,1.3,2.7c-0.3-1.3,0.6-4.6,2-7.1C307.9,530.2,306,528.4,304.1,528.2z"/><path d="M443,616.7c0.1-0.2,0.2-0.4,0.3-0.7C443.2,616.3,443.1,616.5,443,616.7C443,616.7,443,616.7,443,616.7z"/><path d="M323.4,530.8c-1.3,0.1-2.4-0.2-3.3-0.8C321.1,531,322.2,531.1,323.4,530.8z"/><path d="M242.4,589.8c-0.3-0.8-0.4-1.6-0.6-2.4c-0.2-0.3-0.5-0.4-0.6-0.9c-2.4-10.5-5.4-20.9-6.6-31.6c-0.2-2.1-0.8-4.1-1.9-5.9c-2.9-4.5-5.3-4.6-7.9,0.1c-2,3.5-4,4.2-7,1.2c-1.3-1.3-3.5-2.3-4.6-1.3c-2.9,2.8-6.3,2.3-9.7,2.4c1,3.6,1.3,7.3,0.8,11c-0.9,5.4,1.2,10.1,3,14.9c1.5,3.9,4.8,5,8.9,4.5c1.8-0.2,4.1-1.8,4.8,1.4c2.4-4.2,5.8-2.8,8.6-0.9c3.4,2.4,6.7,4.9,10.5,6.7c1.9,0.9,3.6,2.5,3.8,5.1c0.1,0.8,0.2,1.4,0.5,1.8c0-0.1,0-0.2,0.1-0.2c-0.2-0.5-0.4-1.2-0.5-2.1C243.7,592.4,243.1,591,242.4,589.8z"/><path d="M221,583.4c0-0.1-0.1-0.1-0.1-0.1l0,0C221,583.3,221,583.5,221,583.4z"/><path d="M443.9,542.8c-0.1,0-0.1,0-0.1,0c0,0.2,0,0.3,0.1,0.5C443.7,543.6,444.6,542.8,443.9,542.8z"/><path d="M443.7,542.8c0-0.2-0.1-0.4-0.1-0.6c0,0,0,0,0,0.1C443.6,542.6,443.6,542.7,443.7,542.8z"/><path d="M483.4,320.8c-2.2-0.6-4.1-1.5-5.5-3.2c2.4,1.8,2.1,3.4-0.2,5.3c-1.7,1.5-3.5,3.4-2.1,5.9c1.6,2.8,4.4,2.7,7.1,2c2.5-0.7,6.4-1,6.5-3.6C489.2,324.4,486.7,321.6,483.4,320.8z"/><path d="M332.9,471.4c1.2-0.3,2.3-0.6,3.1-0.9C335.2,470.7,334,470.9,332.9,471.4z"/><path d="M416.9,578.6c-0.5-2.4-0.9-4.8-1.9-7.5c-1.3,5.2-9.8,7.1-7.3,12.3c1.9,4,0.6,10,5.5,12.6c0.9-3,4-4.3,6.1-5.6c2.1-1.3,4.9,2.9,8.3,3.2c1.8,0.1,1,2.4,0.7,3.9c-0.3,1.8-0.5,3.7-0.7,5.6c2.4,3.2,6,3.5,9.4,4.4c1.6-0.7,2.9-1.8,4.8-0.8c3.1,2.4,2.5,5.5,1.8,8.6c-0.1,0.3-0.2,0.5-0.3,0.7c0.1-0.2,0.2-0.3,0.3-0.5c1.7-1.5,2.9-0.1,4.2,0.6c1.8-4.7,2.9-9.6,5-14.2c-3.3-2.7-5.4-6.4-7.6-9.9c-2.6-4.1-6.2-5.5-10.5-5.6c-4.7-0.2-8.6-1.6-11.7-5.1C419.5,583.8,417.6,582.3,416.9,578.6z"/><path d="M514.8,290.6c-0.9,0.5-2.5,1.6-3.9,0.7c0,0-0.1,0-0.1,0.1c-0.4,0.2-0.7,0.2-1.1,0.3c-0.2,3.1-0.2,6.1,4.2,7.3c1.3,0.3,3.4,1.9,3.8,1.2c2.3-3.3,6.7-1.9,9.1-4.4c0.8-0.9,0.6-1.9-0.5-2.3C522.7,292.2,519.7,288.1,514.8,290.6z"/><path d="M500,10C229.8,10,10,229.8,10,500c0,270.2,219.8,490,490,490s490-219.8,490-490C990,229.8,770.2,10,500,10z M786.9,217.2c2.5,0.8,5.1,1.2,7.3,3c3.6,2.9,4,4.9-1.1,6c-0.8-0.8-1.6-1.5-2.4-2.3c-1.3-1.5-2.8-1.8-4.6-1.5c-2.3,0.4-3.1-1-2.9-3C783.5,217.1,785,216.5,786.9,217.2z M678.4,155.1c2-0.9,1.8-2.6,1.9-4.3c0.7-7.8,5.5-13.6,11.6-16.8c3.4-1.8,8.3,2.2,11.4,5.5c1.2,1.2,1.9,2.8,2.9,4.2c1.2-0.5,2.4-1.1,3.7-1.4c2.3-0.7,3.6-1.7,1.5-3.9c-1-1-2.2-1.9-1.3-3.3c0.9-1.5,2.7-1.3,4.1-1.1c1.1,0.1,2.2,0.5,3.2,1.1c3.5,2.1,6.4,4.9,11.1,4.7c1.7-0.1,4.9,1.2,4.4,5.2c-0.4,3.3,5.4,3.1,5.6,6.8c0,0,0,0,0,0c4-0.4,6.4,2.2,8.9,4.7c1.2,0.9,2.7,1.7,4,1.9c3.2,0.5,5.1,2.1,6.3,5.1c1,2.3,2.6,4,5.4,4.9c3.9,1.2,5.2,4.9,4.3,8.5c-0.9,3.6,0,6.1,2.2,8.8c5.5,6.5,4.9,19-1.4,24.7c-2.2,2-3.5,5-6.6,6c-0.6-0.1-1.2,0-1.7-0.1c-2.2,1.8-5.4,0.2-7.9,0.8c-0.1-0.1-0.3-0.2-0.4-0.3c-2.8,0.4-5.6,0.6-8.4,0.1c0.1,0.5,0.1,1-0.4,1.6c-0.8,0.9-2.1,1.3-3.1,0.7c-5.2-3.4-12.4-3.1-16.2-9l0,0c-5.5-1.1-9.7-5.1-14.9-6.8c-0.4,0-0.7,0-1.1-0.1c-2.3-1-4.3-2.7-6.7-3.5c-1.2-0.4-2.5-1.9-1.6-3c4.6-6-1.4-7-4.3-9.4c-0.4,0-0.7,0-1.1-0.1c-0.6-1.5-1.2-3,0-4.5c0-0.4-0.1-0.7-0.1-1.1c0,0,0,0,0,0c-4.6,1.8-5.2-3.2-8-4.6c-5.2-4.6-10.2-9.2-9.6-17.1C676.4,157.8,676.4,156.1,678.4,155.1z M627.2,161.3c1-2.7,3.6-2.6,5.8-2c2.9,0.8,4.6,2.6,4.1,4.3c-1.5,5.5,2.4,7.2,3.3,10.2c0.5,1.7,2.4,3.3,0.7,5.2c-1.6,1.7-3.1,0.4-4.5-0.6c-1.5-1.2-3.5-0.1-5-0.8c-2.1-1-7-1.1-2.2-5.2c1.9-1.6,0.6-2.8-0.9-3.4C623.9,167.1,626.2,163.9,627.2,161.3z M127.9,749.8c-3.2-0.5-3.9-3.8-4.8-6.3c-0.5-1.4,0.1-3.5,2.1-3.3c3.3,0.3,4.6,2.9,5.3,5.7C130.3,747.9,130,750.1,127.9,749.8z M164.7,766.6c-3,2.6-6.1,0.8-8.8-1.2c-10.5-8-14.6-18.4-12.1-31.1c11.9,3.2,17.7,12.5,22.3,22.9C167.6,760.6,167.7,764.1,164.7,766.6z M349.4,872.3c-2-0.2-4.7-0.6-4.4-3.1c0.2-2.4,3.2-2.1,5.1-2.5c1.9-0.4,3.5,0.6,3.5,2.6C353.5,871.8,351.4,872,349.4,872.3z M418.5,902.3c-1.1-0.8-2.3-1.5-3.4-2.3c-1-1.5-2.6-2.2-4.1-2.9c-2.7-1.3-3.2-3.6-2.5-6.2c0.7-2.6,3.2-2.3,5.1-2.5c1.3-0.2,2.6,0.3,3.9,0.1c7.8-0.8,9.6,0.2,10,5.7C427.9,899.4,425.3,901.8,418.5,902.3z M437.8,839.3c-1.2,0.7-1.8,1.2-1,2.5l0,0c-7.1,4.3-14.4,7.3-22.8,3.8c-1.7-0.7-3.6-2.3-5.3-1.3c-5.4,2.8-7.4-0.6-8.8-4.6c-1.4-3.8-4.8-6.2-6.5-10.1c4.1-1.3,7.5,2.5,9.8,2.1c5.2-0.8,11.3,0.2,15.7-4c3-2.9,4.3-3.6,5.4,1.5c1.2,5.9,7.2,8.3,12.7,5.7c0.4,0,0.7,0,1.1,0C440,836.5,439.6,838.2,437.8,839.3z M478.3,778.7c-2.4-0.1-4.1-1.1-4-3.7c0-1.9,1.2-3.4,3.1-3.3c2.6,0.1,3.6,2.3,4.6,4.2C481.6,778.1,480.1,778.7,478.3,778.7z M866.3,414.6c-3.5-0.3-3.3-4.3-5.7-5.8c-0.8,0.8-1,2-0.4,2.6c7.3,6.8,6.6,15.7,4.8,24c-1.6,7.3-7.9,11.4-14.9,13.9c-2.2-0.3-2.8-1.8-2.7-3.6c0.4-5.3-3-7.8-6.9-10.1c-8.7-5-9.2-6.4-6.1-16c1-3.2,2.4-6.4,2.8-9.8c0.2-1.7,0.7-3.4,2.6-4c2.2-0.7,2.8,1.5,4.1,2.5c0-0.1,0.1-0.2-0.1-0.3c-3.3-2.5-0.9-5.7-1.1-8.6c0-0.8-0.1-1.5-0.1-2.3c1.5-2.7,1.6-5.5-0.8-7.7c-1.7-1.6-0.9-3.4-1.3-5.2c0-0.2-0.1-0.4-0.1-0.6c-2.2-0.2-4.3-0.4-6.4-0.9c-1.5-0.3-2.8-1-3.7-2c-0.5,0-1,0.1-1.4,0.2c-0.4,0.3-0.9,0.5-1.4,0.6c-0.7-0.1-1.2,0.1-1.7,0.3c-0.5,2.1-0.6,4.3-0.5,6.5c-1.9-0.4-2.9-1.5-3.7-3c-0.3,0.2-0.6,0.4-0.9,0.5c-4.9-0.8-8.4,0-8.8,6.2c-0.2,3.3-3,4.6-5.7,1.9c-5.1-5-11-7.9-18.3-7.9c-1.5,0-2.2-1.3-3-2.4c-2.4-2.8-4.2-5.7-1.7-9.3c0.4-0.6,0.8-1,1.2-1.6c-0.4-0.9-0.9-1.7-1.4-2.5c-2.1-2.9-4.8-3.1-7-0.5c-1.8,2.1-2.2,6.7-5.8,5.4c-3.5-1.3-3.1-5.6-3-9c0-0.6,0.1-1.1,0.1-1.7c0.6-1.7,2.1-1.7,3.5-2.1c-0.1-0.1-0.2,0-0.3-0.1c-0.1-0.3-0.1-0.6-0.2-0.9c-3.7,1.5-8.6,0.5-11.2-2.7c0.1-1.8-0.6-3.3-1.4-4.8c-1.1-2-2.8-3.9-0.7-6.1c2.1-2.2,4.8-3.7,7.9-4c2.7-0.2,2.4,2.4,3.1,4c0.7-1.6,1.1-2.9,1.2-4c-1.6-4.8-4.2-5.8-10.8-4.7c-4.2-2.4-8-5.5-13.4-5.6c-3.6,0-3.1-3.5-3.5-6.1c-0.9-5.9-1.7-11.9-3.1-17.7c-0.1,1.9-0.2,3.7-0.5,5.6c-0.3,1.7-0.2,3.6-2.7,4.3c-2.4,0.7-3.4-0.5-4.6-1.9c-0.3-0.8-0.5-1.7-0.9-2.4c-2.1,0-4.3,0-6.4,0.1c-1.1,0-3,0.1-3.2,0.7c-1.7,4-3.5,4.7-6.8,1.4c-1.4-1.4-2.2,0.7-2.8,1.7c-2,3.1-3.9,4.7-6.7,0.7c-1.1-1.6-3.1-2-5.1-2.4c-0.4,0-0.7-0.1-1.1-0.1c-3.3,3.1-7,4.4-11.5,3.4c-5.9-0.8-5.3,3.4-3.2,5.8c4,4.6,0.3,11,4.4,15.2c0.1,0.1,0.1,0.4,0,0.6c-6.9,9.3,2.8,16.1,3.6,24.2c1.1,0.4,2.2,0.8,3.3,1.2c3.5,2,5.7,4.9,6,9.1c0.1,1.1,0.4,2.5,1.1,3.1c6.9,5.6,5.7,14.8,9.9,21.6c0.9,1.5,0.8,4.3,3.6,3.1c2.1-0.9,1.4-2.8,0.4-4.3c-0.7-1.1-1.1-2.1,0.2-3c1.3-0.9,2.2,0.3,2.8,1.1c5.7,6.7,11.9,6.1,19.5,3.1c3.6-1.5,8.2-5.4,12.9-1.3c0.7,0.6,1.7-0.4,2.3-1.2c1-1.1,0.5-4.2,2.8-3.4c2,0.7,1.1,3.3,1.3,5.1c0,0.1,0,0.2,0,0.3c0.3,0,0.7,0,1.1,0c2.9,1,6.2,0.8,8.7,2.7c0.2,0.3,0.3,0.7,0.4,1.1c0.3-0.2,0.7-0.4,1-0.5c1.2-1.2,3.1-1.5,4.5-2.3c1.7-0.2,3.6-0.4,3.7,2c0.1,2.5,1.1,4.5,2.6,6.3c1.4,1.7,0.9,3.4-0.3,4.5c-2.6,2.6-1.1,4,1.1,5.3c4.8,4.8,4.5,12.3,9.2,17.1c0.1,2.6,1.1,4.9,2.8,6.6c3.9,3.9,3.9,9.8,7.5,14c1.6,1.9-0.7,3.8-2.8,4.5c-2.3,0.8-4.8,0.8-7.2,0c-1.3-0.5-2.8-2.4-4-0.9c-1.4,1.6,0.6,3,1.5,4.4h0c-2.4,1.8,0.2,5.2-2.3,6.9v0c-1.6,1.4-3.5,2.1-5.2,0.7c-3.3-2.6-7.2-2.5-10.8-2.2c-5.5,0.5-9.8-3.2-15.1-3.2c-0.6,0-1.1-0.5-1.4-0.8c-3.7-6-9.9-8.9-14.9-13.3c-3-2.6-4.7-7.2-3.4-12.6c1.7-6.9,3.1-13.9,3.6-21.1c-0.5-0.6-0.9-1.2-1.6-1.5c-1.6-1.3-3.5-1.3-5.4-1.4c-1.3-0.1-2.2-0.5-3.1-1c-1.2-0.4-2.4-0.9-3.6-1.5c-5.7-3-7.4-1.7-7.7,4.7c-0.1,1.3-0.1,2.7-0.3,4c-0.3,2.4-1.6,4.5-4,5c-2.6,0.5-3.5-1.9-4.3-3.8c-2.2-5.4-5.9-8.7-11.8-9.4c-1.2-0.2-2.6-0.8-3.6-1.6c-3.4-2.9-6.3-0.5-6.5,2c-0.6,5.6-7.5,3.9-8.6,8.6c-0.2,0.8-2.1-0.6-1.8-1.8c0.6-3.4-0.6-5.9-3.2-7.9c-0.5-0.4-1-1.4-0.8-2c2.1-6.4-4-5.2-6.6-6.8c-3.1-1.9-6.2-1.2-8.1,2.8c-1.3-2.4-0.5-4.5-0.8-6.5c-2.3-2.2-0.7-4.7,0.2-6.6c0.7-1.6,1.1-2.5-0.2-3.7c0-0.4-0.1-0.8-0.1-1.1c3.6-1.9,7.7-0.1,11.4-1.2c0-0.3,0.1-0.7,0.1-1c-3.2-1.6-5.2-4.7-8-6.9c-0.4,0-0.7-0.1-1-0.1c-2.6-2.5-4.7-5.3-6.6-8.3c0,2-2.2,3-4.3,3.7c-3.3,1.2-6.6,1.9-9.3,4.7c-2,2.1-5,0.7-7.3-0.7c-5.6-3.4-8.7-3-13.6,1.6c-1.6,1.5-3,3.6-5.7,3.5c-7.9,0.4-7.9,0.4-7.8-7.2c0-1.6-0.9-4.1-2-2.9c-3.8,4.2-5.4-0.2-7.7-1.4c-1.3-0.7-2.6-1.5-3.9-2.3c-2.9,0.2-6-0.7-8.1,2.3c-3.4,5.8-3.4,5.8-7.7,0.1c-0.7-0.9-1.5-1.8-2.5-2.2c-3.8-1.5-4.2-3.5-1.3-6.3c1.4-1.3,2.6-3.5,0.5-4.2c-7-2.4-7-11.8-14.9-13.4c-3.4-0.7-0.4-4.5,0.2-6.8c-6.5-0.1-12.3-2.7-18.6-1.8c-1.8,0.3-2.4-1.2-2.6-3c-0.4-4.6,3.5-6.5,5.8-9.2c0.8-1,2.9,0.3,3.2,2.1c0.4,1.9,1.4,2.1,2.8,1.4c0.8-0.4,2-0.9,2.2-1.6c0.5-1.7-1.3-2-2.3-2.7c-2.9-2.2-7.3-3.1-8.2-7.2c-0.2-0.1-0.4-0.1-0.5-0.2c-0.5-0.1-1-0.1-1.6-0.2c-0.9-0.7-1.5-1.4-2.1-2.2c-0.6-0.2-1.1-0.6-1.3-1.5c-0.6-2,0.8-3.5,2.2-4.8c0.4-0.3,0.8-0.7,1.2-1c0.3-0.9,0.5-1.7,0.7-2.6c-5,2.2-8.5,6-10.6,11.2c-0.5,1.1-1.7,1.8-3,1.1c1.7,1.4,3.5,3.1,5.3,4.6c0.9,0.7,1.8,1.5,2.2,2.6c0.7,1.5,2.8,4,1.1,4.7c-5.6,2.1-1.3,11-8.2,11.4c-3.9,0.2-4.9,1.6-3.5,4.9c1.1,2.5,0.5,5,0.6,7.5c0.6,0,1.1,0.1,1.7,0.4c3.2,2,6.4,4.2,6.6,8.4c0.2,3.9-1.3,6.4-5.2,8c-6.3,2.6-9.7,8-11.4,14.5c-0.1,0-0.2,0-0.4,0c3.1,7.3-4.6,17.7-12.4,15.9c-2.1-0.5-4.2-0.3-6.2,0c-7.3,1-9.9,7.2-5.5,13.2c2,2.7,4.8,4.2,7.9,5.4c5.8,2.3,6.3,4.2,2.9,9.5c-1.9,2.9-0.8,5.3,2.8,6.9c1.7,0.8,3.7,1.3,4.8,3.3c0.6,1,1.6,2.1,0.7,2.8c-2.5,1.9-5,3.8-7.2,6.1c-1.4,1.4-3.3,0.4-5.1-0.3c0,0,0,0.1,0,0.1c0.1,0.7-0.1,1.4-0.1,2.1c1.2,3,2.7,2.6,9.1,0.8c0.6,1.4,1.9,2.1,3,3c3.1,2.4,2.9,5.3-0.7,9.5c-1.8,1-4.1,1.2-5.3,3.1c-0.9,1.5-3.7,2.1-3,4.4c0.7,2.1,3.3-0.9,4.8,2.1c-4.2,0.7-8,2.6-12.3,2.9c-0.8,0.8-1.6,1.6-2.4,2.3c-3.6,0.3-7.4,3.2-10.8-0.5c-0.1-0.6,0-1.2,0-1.8c-3.6-0.7-7.2,0.1-10.8,0.2c-0.3,0.7-0.7,1.4-1.1,2.3c-3.1,0.9-6.2,1.9-8,4.9c-0.3,0.5-0.7,1.2-1.1,1.2c-7,0.4-13.7,5.6-21,2.5c0,0,0,0.1,0,0.1c0.1,0.3,0.2,0.5,0.3,0.8c1.7,4.3,4.9,5.6,9,4.9c5.9-0.9,9.6,1.2,11,7.1c1.1,3.7,0.3,6.6-3,8.9c-4,2.8-7,7.3-12.9,6.4c-2-0.3-2.1,1.3-2.2,2.7c0,2.4-2.1,3-3.5,4.3c-2.5,0.9-3.5,3.2-4.6,5.2c-2.4,4.2-2.1,4.9,2.7,5.3c3.6,0.4,6.7,2.3,10.3,2.8c2.9,0.5,2,3.2,2.2,5.4c0.4-2.7,2.5-2.2,4.3-2.5c5.5-0.6,11,0.8,16.5,0.4c1.7-0.1,3.2,0.8,3.1,2.6c-0.4,7.7,5.7,10.3,10.8,13.1c9.5,5.3,9.6,5.1,11.7,15.1c2.5-3.1,2.6-7.3,5.8-9.8c4.1-3.2,5.5-3.2,7.2,1.6c0.6,1.7,2.6,3,1.8,5.1c0,0.8,0,1.6-0.2,2.4c-0.1,0.1-0.1,0.2-0.2,0.2c4.7,2,7.5,5.2,9.7,10.5c3.6,8.5,3.2,16.2,0.1,24.3c-1,2.6-1.7,5.7-5,5.7c0,0,0,0,0,0.1c-0.1,0.9-0.1,1.7-0.1,2.5c1.3,3.4,1.2,7.4,4.8,9.6c1.8,1,3.3,2.4,5,3.7c6.3,0.2,11.5,2.1,14.4,8.3c1.3,2.8,3.7,4,6.8,4.4c3.7,0.5,7.5,1,10.8,3.3c-0.9,7.5-0.7,9.7,2.7,17.9c1.3,3.3,2,6.4-0.3,9.6c0,0.2,0,0.5,0,0.7c0.4,0,0.7-0.1,1.1,0c2.8,4.9,2.3,8.9-3.1,13.2c-3.7,3-6.6,6.8-10.9,9c-2.7,1.4-3.1,3-1.3,5.9c1.5,2.5,5.7,5.7,0.5,8.9c-1.1,1-2.4,1.9-3.3,3.1c-3.3,4.2-7.2,5.7-12.5,4.3c-5-1.3-9.7-0.7-13.8,3c-2.3,2-3.8,3.8,0.6,4.9c1.6,0.4,3.2,0.6,2.7,2.7c-0.4,1.7-2,2.4-3.5,2.2c-1.9-0.2-3.7-0.8-5.5-1.2c-2.8-0.7-5.6-0.5-6.9,2.4c-1.9,4.5-5.5,4.3-9.1,3.4c-4.6-1.2-9.2-2.4-14-1.7c-2.8,0.4-4-3-6.7-2.5c-2.2-0.2-4.2-1.2-6.3-1.9c0.2,0.1,0.5,0.2,0.7,0.3c1.8,0.9,3.8,1.6,5.5,2.8c1.3,2.1,2.1,4.5,2.8,6.8c0.1,1.6,0.7,2.7,2.4,3.1c1.5,0.3,2,1.3,1.9,2.9c-0.2,1.7-1.3,2.1-2.7,2.4c-1.8,0.4-3.6,1.1-5.4,1.6c-2.8,0.7-4.7,1.6-4.8,5.1c0,2.1-1.7,3.6-3.3,5.1c-1.3,1.3-3.2,2.7-2,4.7c1.1,1.8,3,0.6,4.7,0.3c4.4-0.9,9.1-1.3,11.2-6.3c0.3-0.7,1.3-0.5,2.1-0.5c5-0.8,8,1.5,9.5,6c1.9,5.5-0.5,8.5-6.4,8.9c-5.5,0.4-10.5,3.1-15.6,5.1c-2.3,0.9-2.8,3.8-1.5,5.4c5.8,6.8,2.8,12.9-0.9,19c-0.8,0.7-1.5,1.5-2.3,2.2c-2.7-2.6-5.7-4.4-9.5-4.5c-6.7-0.2-8.7-6.5-12.6-10.1c-1.4-1.3,0.9-2,2.1-2.4c3.2-1.1,3.3-3.2,1.8-5.8c-2.2-3.8-3.7-7.9-3.5-12.4c-3.5-0.8-5.8-1.9-2.1-5.7c2.1-2.1,4.6-4.5,1.3-7.9c-1.6-1.7-1.1-4.1,1-5.4c1.4-0.8,2.6-1.9,3.9-2.8c-3.2,0-6.1-0.5-7.7-5c-1-2.8-4.9-2.5-7.7-1.5c-2.1,0.8-4.8,1.6-4.6,4.4c0.2,3.1,2.4,5.2,5.5,5.7c1.8,0.3,3.1,1.2,4.5,2.2c3,2.2,2.7,4.3-0.7,5.1c-3.3,0.8-5.6,2-6.2,5.5c0,0-0.4,0-0.5-0.1c-0.2-0.1-0.3-0.3-0.4-0.4c-7.4,0.3-7.7,0.7-7.9,9.1c0,0.4,0,0.7,0,1.1c2.4-0.5,4.6,0.6,6.8,1.2c3.5,8.1,3,8.8-6.8,9.2c0,1.1,0,2.2,0,3.4c4.3,0.8,7.7,1.1,6.4,7.7c-0.9,4.5,0.8,10.3,6.3,12.9c1.6,0.7,3.3,1.8,2.4,3.8c-0.9,2-2.3-0.5-3.4-0.2c-6.3,1.9-12.8-1.6-19.2,1.4c-4.2,2-11.2,0.4-14.8-2.3c-0.1,0-0.1-0.1-0.2-0.1c-0.7-0.5-1.2-1-1.6-1.6c0-0.4,0-0.7-0.1-1.1c-0.4,0.9-1.1,1.7-1.1,2.5c-0.5,9.9-2.4,11.5-12.6,10.4c-0.7-0.1-1.5-0.2-2.2-0.4c-1.4-4.5-4.5-6.6-9.1-6.8c-3.7-0.3-7.1-1.1-9.2-4.5c-4.3-1.9-8.6-3.7-12.9-5.7c-0.8-0.4-1.9-1.3-1.9-1.9c0.4-5.5-3.5-5.7-7.3-6.6c-5.2-1.2-7.9-6.2-12-9.1c-1.5-1.1-0.5-3.3,0.4-4.7c2-3.1,1-5.1-1.5-7.3c-3.3-3.1-4.9-13.5-3.1-17.6c1.2-2.8,4-2.4,6.3-3c-3.8-1.9-6.1-4.8-6.8-9.2c-0.6-3.9-4.6-5.4-7.6-2.9c-1.5,1.3-2.8,2.1-4.5,1.1c-2.6-1.6-3.6,0.2-4.1,2.1c-0.5,1.9,0.4,3.4,2.8,3.1c3-0.3,3,1.1,2.3,3.5c-2.5,8.3-2.4,8.3-11.2,6.2c-3.9-1-6,0.5-5.3,4.7c0.7,4.2,2.2,8.4,0.7,12.6c-1.1,3.3-2.1,6.9-7.1,3.9c-3.5-2.2-5,0-4.5,3.4c0.4,2.7-0.2,4.1-3.2,3.7c-1.7-0.2-2.7,1.1-3.8,2.2c-4.7,4.3-5.3,4-6.6-2.3c-0.2-0.8-0.3-1.5-0.5-2.2c-1.7-5.1-5.6-8.7-8-13.4c-2.6-4.9-8.1-6.2-13.7-6c-1,2.1-2.2,4,0.2,6.1c1.6,1.4,2,3.6,1.6,6.7c-6.7-5.5-14.1-8.2-22.4-8.3c-4.3-1.3-8.5-3.6-13.3-1.9c-0.5,0.2-1.4,0.2-1.6,0c-4.4-5.3-11.4-5.8-17-8.6c-7.1-3.5-11.5-10.1-18.4-13.5c-1.9-0.9-3.2-1.7-5.6-1c-3.1,0.9-6.7-0.5-7.4-3.8c-1.7-8.6-9.5-9.4-15.3-12.1c-6.7-3.1-9.3-6.7-7.1-14c-2.6-5-4.8-10.2-6.6-15.6c-1-3-2.7-5.8-5.9-7.3c-5.1-1.2-8.3-4.5-10-9.2c-2-5.3-7.2-6.4-11.5-8.6c-1.7-0.8-3,0-2.6,2.2c0.2,1.1,0.6,2.2,0.8,3.3c0.2,1.7,0.5,3.8-1.7,4.2c-2.2,0.4-3.2-1.6-3.1-3.3c0.3-5.8-2.6-10.4-5-15.4c-1.5-3-3.1-4-6.2-3.2c-5.2,1.4-8.8-0.8-11.3-5.3c-2.1-3.9-4.4-7.5-8.5-9.7c-3.6-1.9-1-5.1-1.4-7.7c0-0.7-0.1-1.5-0.1-2.2c-4.8-2.7-5.6-7.8-6.9-12.4c-0.8-2.7-1.4-5.5-2.1-8.2c-1.8-8.4-8.4-14.8-9.6-23.5c-0.1-1-0.9-1.9-2-1.5c-2.1,0.7-1.2,2.3-1.1,3.8c0.2,6.8,1.4,13.6,2,20.4c-1.2-1.8-2.4-3.6-3.6-5.4c-6.9-36.2-11.1-72.8-9.3-109.8c1.7-34.6,6.8-68.7,15.3-102.5c5.4-21.1,12.1-41.6,20.7-61.5v0c1-4.1,2.5-8,4.5-11.7c3.4-3.9,4.3-8.9,6.5-13.4c7.1-14.9,15.1-29.3,23.8-43.2c3.2-1,6.2-2.3,9.1-4.4c-4.9,7.5-9.7,15-14.4,22.6c-3.2,5.2-4.9,10.9-7.5,16.3c-2.6,0.6-3.3,2.3-3.4,4.9c-0.1,2.4-1.1,3.6-2.9,3.4c2,2.2,2.5,5.6,4.5,8.3c2.7-3.2,5.9-5.5,7.7-9.1c3.9-7.8,9.8-14.2,15.4-20.7c5.4-6.3,10.3-13.1,15.4-19.4c5.9-7.3,12.4-14.7,20.2-20.5c2.7,0.8,5.1,0,7.2-1.8c1.4-1.2,3-2.2,4.7-3c7.9-4,10-3.3,13.1,4.4c-1.4,5.8-4.8,10.4-8.6,14.8c-6.1,7.1-13.5,13.1-15.6,23.2c-1,5-5.7,6-13.7,4c4.4,9,3.5,17.3-2.4,25.3c-1.2,1.7-2.1,3.2-4.5,2.2c0,0-0.1-0.1-0.1-0.1c-1.2,4.2-2.3,8.3-6.7,11c-2.9,1.8-3,7.8-8.6,5.8c-0.2,0.7-0.5,1.5-0.4,2.2c0.1,1.6,0.9,4.8,1.7,4.2c3.7-3.2,6.2,5.6,9.5,0.6c1.5-2.3,4-2.6,6.4-3.2c6.4-1.6,7-3.1,3.5-8.8c-0.9-1.4-1.7-3.7,0.2-3.6c5.4,0.3,6.9-3.6,9.2-8.7c1.4,6.5,6.1,9.8,6.2,15.2c0.1,2.5,1.5,3.4,3.8,2.4c1.7-0.7,3.5-1.5,5.2-2.3c-0.3,0-0.7,0-1-0.1c-3.1-2.7-6.4-5.3-3.5-10.3c0.6-0.9-0.6-2.8-0.8-4.3c-0.7-6.3-1-12.5,4.2-17.3c0.8-0.4,1.6-0.7,2.4-1.1c5.8-4.3,10-10.2,14.9-15.3c2.7-2.8,4.9-5,9.6-4c4.1,0.8,8.6-0.4,12-3.5c-1.3-10.7,5.1-18.6,10.4-26.6c3.7-5.7,8.1-10.9,12.2-16.3c0.7-0.9,1.6-0.9,2.5-0.5c0.2-5.8,4-6.7,8.9-7.1c9.1-0.8,17.8-2.9,25.9-8.7c-2.6-2-5.9-1.1-7.4-3.6c-0.1-0.2-0.2-0.3-0.3-0.5c-2.3-6.3,3.8-7.8,6.5-11.3c1.8-2.3,4.5-3.7,7.5-1.7c2.9,2,2.8,7-0.4,10.1c-1.5,1.4-3.5,2.3-5.3,3.4c5.8,2.8,10.7-0.9,15.7-2.5c6.8-2.2,13.4-5.2,20.8-5.4c2.9,0.1,5.4-1.3,8-2.3c4.6-2.1,8,1.3,9,4.2c1.3,3.7,3.2,3.4,5.7,3.2c2.2-0.1,4.1,0.3,5.8,1.7c1.3,0.2,2.2,0.8,2.3,2.3c2.7,0,5.3,0,8,0.1c0.3-0.2,0.6-0.5,0.9-0.6c3-1.1,2.9-6.3,6.4-5.6c2.9,0.5,5.3,3.2,7.9,5c0.6,0.4,1.3,0.7,1.9,1.1c1.1,0,2.3,0,3.4,0c2.7,2,5.3,1.9,8,0l0,0c2.5-1.5,4.3-4.1,7.9-3.1c3.1,0.9,5.4,2.1,6.1,5.6c0.7,3.7-2.8,3.3-4.8,5c4.9,2.5,11-0.6,14.8,4c0.1,1.8,0.9,2.9,2.8,2.6c2.8-0.4,5.1,1.1,7.5,1.9c2.3,0.3,4.2,3.3,6.8,1.1c0-2.3,0.1-4.5,0.1-6.8c0.5-0.4,0.8-0.4,1-0.3c-0.1-1.2-0.9-2.4-0.6-3.7c0,0,0,0,0,0c-0.8-0.8-0.8-2.3-1.7-2.9c-3.7-1.9-4.6-4.2-1.5-7.5c0.8-0.8,1.6-1.9,1.6-2.9c1-13.3,10.3-17.9,21.6-19.7c5.9-0.9,11-5,16.9-5.5c-0.7-1.7-0.3-3.9-0.1-5.9c0.4-3.7-0.3-5.3-4.6-4.5c-4.8,0.9-7.6-2.4-6.9-7.3c-0.2,0.2-0.4,0.4-0.7,0.6c-4.8,0.3-5.1-3.3-5.8-6.5c1.8-3.1,3.9-5.6,8-5.6c2.1,0.1,3.3-1.3,3.3-3.5c0.4-1,1.1-1.7,1.7-2.5c-5.3-0.9-10.9,0.2-15.4-3.6c-0.6-0.5-1.1-1.2-1.7-1.7c-4.2-3.3-3.4-7.3-1.8-11.4c0.7-1.7,1.7-2.8,3.8-2.8c4.9,0,5.1-2.9,3.9-6.6c-0.9-2.6-1.4-5.2-0.3-7.2c-2,2-3,4.5-1.7,8c1.2,3.1-0.4,4.5-3.1,5c-2.5,0.5-4.9-0.1-7.4,0.1c-6.2,0.4-6.8,0.9-7.6,7.4c-0.5,2-1.3,3.7-3,4.9c-6.1,1.1-9.9-3.3-12.9-6.9c-3.3-3.9-4.7-4.1-7,0.2c-1.3,2.4-3.2,3.5-5.9,3.8c-10.5,0.9-14.5,9-18.4,17.1c-0.8,1.6-0.1,3.3,0.4,5c1.8,7.8,0,10.7-7.7,13.1c-4.6,1.5-9.9,2.7-13.9,1.5c-5.5-1.7-11.6-2.6-16.3-6.6c-1.4-1.2-2.8-3.3-4,0.1c-1.4,2.6,1.6,6.7-2.8,8.3c-5.1,1.8-9.9,5-15.6,1.7c-3.8-2.2-7.9-2.4-12-0.7c-2.1,0.8-4,1.5-5.1-1.3c-8.3,1.6-15.7,5.5-23.4,8.8c-9.3,4-15.8,11.4-20.9,20c-3.7,6.2-9,10.6-15.4,13.8c-2.4,1.2-4.8,0.2-7.2-0.3c-1.9-0.4-3.5-0.3-2.6,2.6c3,9.3,1.2,13.8-7.9,19.5c-1.1-2.7,0.6-4.7,1.4-7c0.4-1.3,0.4-2.7-1-3.5c-1.2-0.7-2.2,0-3.2,0.6c-2.6,1.8-3.9,4.6-5.4,7.2c-1.1,2.1-2.4,4.2-5.1,3.7c-2.6-0.5-2.8-2.8-3-4.9c-2.7-0.5-5.5-1.1-7.9-1.5c-1.5-6.5,1.2-12.6,1.1-19c0.2-0.2,0.3-0.5,0.5-0.7c4.5,0.4,9.6-2.8,10-7.2c0.2-3.2,1.7-4.8,4.2-5.9c4.3-0.3,8.3-1,8.6-6.6c0.1-1.5,1.1-2.4,2.3-3c2.6-0.4,5.7,1.6,7.8-1.6c0.3,0,0.6-0.1,0.8-0.1c3.2-1.1,5.3-3,7.2-6c2.7-4.2,7.5-6.2,12.4-7.1c8.7-1.6,17.5-2.7,23.5-10.2c4.3-5.3,10.6-7.9,15.6-12.2c0.5-0.5,1.5-1,2-0.8c6.7,2.3,12.6-1.3,18.9-2.4c3.3-0.6,6.3-1.4,8.3-4.3c0.3-0.5,1.1-1.2,1.2-1.1c5.6,3.6,9.8-1.9,14.8-2.3c1.4-0.1,2.3,0.6,2.3,1.9c0.1,6.4,3.2,2.8,5.3,1.5c1.6-1,2.8-2.5,4.6-4.1c-2.9-1.6-5.5-3.1-8-4.6c-1-0.6-2-1.2-2-2.5c0-1.6,1.2-2.4,2.6-2.6c5.1-0.8,9.2-5.1,15.4-2.6c4.1,1.6,9.1-0.4,10.8-5.9c1.5-4.7,6-5.5,9.7-7.3c4-2,8.6-2.8,10.5-7.8c1.1-2.7,4.4-2.7,6.8-3.6c10.1-3.7,20.3-7.4,30.4-10.9c3.5-1.2,7.2-0.7,10.8-0.9c2.3-0.1,4.7,0.2,6.3-1.9c1.3-1.6,2.9-3.3,4.7-1.7c2.3,2,6.3,2.4,6.5,6.5c0.1,1.7-0.1,3.4-0.1,5.1c8.4,6.6,10.3,18.1,18.3,25c2.1,1.8,1.8,4.1,0.4,6.2c-0.9,1.4-2.2,2.6-3.3,3.8c-1.6,1.7-4.5,2.8-3.5,5.9c0.4,1.2,1.1,1.9,1.9,2.5c0.7-0.5,1.5-1,2.2-1.5c2.8-1.4,5.5-0.3,8.3,0.1c1.5,0.2,3.6,1.3,4.4,0.2c2.7-3.5,7.2-4.2,10.1-6.9c3-2.6,4.8-2.7,7.3-0.3c1.9,1.8,3.8,3.6,4.8,6.3c1.1,2.9,4.8,3.2,6.4,0.6c1.1-1.9,3.3-1.8,4.8-3.4c-0.7-2.5-4.5-3.6-3.8-6.9c0.5-2.2,2.2-3.5,3.3-5.3c1.5-2.5,4-2.6,6.5-2.7c4.1,0,7.9-0.9,10.9-3.9c5.9-1.3,9.2,3.2,12.6,6.5c6.5,6.2,13,9.6,22.1,5.5c3.4-1.5,6.6,1.1,9.1,3.5c1.7,1.6,1.3,3.4-1.2,4.3c-3.3,1.3-6.4,2.4-9.9,0.9c-1.3-0.6-2.8-1.5-4.3-0.2c0.7,2.5,3.1,3.2,4.7,4.7c-0.7,1.1-1.5,2.3-2.2,3.4c-2.9,0.7-6,1.9-5,5.4c0.9,3,4.3,2.3,6.9,2.2c1.7,0,3.5-2.2,4.9,0.4c-5.4,0.8-10.4,3.2-16.1,2.9c-2.6-0.1-4.9-0.4-7-1.9c-2.1-1.5-4-1.6-6.3-0.2c-3.7,2.3-8.3,0.9-10.4-2.8c-0.6-1-0.8-2.2-1.5-3c-1.2-1.5-2.9-1.7-4.7-1.1c-0.9,0.3-1.8,1-1.6,2.1c0.5,2.9,3.1,0,4.4,1.8c-3.6,4-2.7,7.1,2.3,9.4c2,0.9,3,2.3,3,4.9c0,6.2,2.3,8.3,8.7,8.4c6.3,0.1,12.6-0.2,18.8,0c3.2,0.2,7,0,6.5,5.6c-0.1,1,4.2,2.7,6.7,3.5c2.9,0.9,5.9,1.7,8.8,2.7c0.5-0.5,1.2-0.8,2.1-0.9c1.6,0,3.2-0.2,4.8,0.5c3.3,0.8,5.5,3.9,8.8,4.7c1.2,1.1,3.1,2,3.9,0.4c2.9-5.5,7-2.8,10.8-2.1c3.2,0.5,6.3,2.7,7.9-2.9c0.8-2.9,4.8-2.2,7.3-0.6c1.5,1,2.6,2.3,4.3,0.5c5.7,0,11.1,0.6,13.7,6.9c0.5,1,1,2.1,1.5,3.1c1.2,2.3,1.7,6,5.1,5c3.8-1.1,9.4,0.4,10.5-5.8v0c5.4,1.4,10.2,4.7,16,4.6c-0.6,1-1,2.2-1.8,2.9c-2,1.9-5,3.2-3.3,6.8c1.7,3.7,4.7,5.8,8.8,6.2c2.3,0.2,4.6,0.1,6.8,0.7c3.8,1.1,7.8,2.3,9.1,6.8c1.7,5.9,5.6,7.6,11.3,6.4c3.7-1.2,7.2-1.6,10.7,1.1c1.6,1.4,4,1,6.1,0.6c6.7-1.4,12.2,0.6,16,6.1c2.6,3.7,5.1,3.9,8.4,1.3c5.8,0.1,11.3,1.3,15.9,5.1c2.1,1.7,4.6,1.6,7,1.7c2.2,2.7,5.3,2.6,8.3,2.8c3.3,0.2,5.8,1.4,7.7,4.1c7.5,2.9,15,5.9,22.5,8.8c1,0.4,2,0.8,2.9,1.2c0.4-1.2,0.8-2.3,1.1-3.6c0.6-2.8,2.1-5,5.4-4.6c3.3,0.4,4.7-0.9,5.6-3.9c0.8-2.8,3.2-3.9,6.2-3.7c2.8,0.1,4.4,1.1,5.3,3.9c0.5,1.5,1.7,2.8,3.5,4.8c-4.9-6.1-6.6-12.7-9.3-18.8c-1.9-4.2-6.9-4.5-8-8.8c-1.1-4.2-0.4-9.2-4.2-12.4c-4-3.5-1.9-7.3-1-11c0.3-1.1,1.4-1.2,2.3-1.4c0.2,0,0.3,0.1,0.5,0.2c0.2-0.9-0.9-1.5-1.9-2.1V195c5.8,4.8,11.4,8.7,16,13.4c2,2,4.3,3.6,6.6,5.1c1.6,2.5,3.1,5.1,4.6,7.7c-0.4,0.1-0.7,0.2-1.2,0.3c0,1.1,0.1,2.3,0.2,3.4c-0.5,1.3-0.9,2.5-1.3,3.8c-0.9,2.8-2.2,4-4.7,1.4c-1.1-1.1-2.6-2.5-3.9-1.2c-1.4,1.4,0.4,2.8,1.3,3.8c2.2,2.5,6.5,4.2,3.1,8.7c-0.1,0.2,0.1,0.9,0.4,1c6.2,2.3,6.9,11.2,14.4,12.2c2.6,0.3,3.5,2.1,2.2,4.6c-1,2.1-0.9,4.3,0.9,5.8c2.1,1.7,2.2-1.2,3.3-1.8c0.8-0.5,1.6-0.4,2,0.4c1.1,2,2.6,4.4,0.9,6.4c-2.4,2.8-3.1,5.3-1,8.6c1,1.6,0.5,2.8-2,2.6c-3.8-0.4-4,2.8-4.6,5.3c-0.8,3.4,1.7,3.2,3.9,4c2.8,1.1,3.8,4.3,5.5,6.8c2.7,4,2.7,8.6,4.4,12.8c0.7,1.8,0.5,3.8-1.4,5.1c-4,2.8-5,7-5.1,11.5c-0.2,6.4-1.7,12.5,1.3,19.4c2.5,5.8,7,6.4,10.9,8.6c7.2,4,9.8,7.6,7.8,15.5c-0.8,3.1-0.8,5.8,0.1,8.8c1.3,4.4,3.7,8.7,1.1,13.6c-0.7,1.4,0.6,2.9,1.8,3.9c5.6,4.8,5.7,10.8,3.3,17.2C867.1,414,866.8,414.3,866.3,414.6z"/></g></g><g></g><g></g><g></g><g></g><g></g><g></g><g></g><g></g><g></g><g></g><g></g><g></g><g></g><g></g><g></g></g>
</svg>