<svg xmlns="http://www.w3.org/2000/svg" width="196.143" height="205.403" viewBox="0 0 196.143 205.403">
  <defs>
    <style>
      .cls-1 {
        fill: #444;
      }

      .cls-2, .cls-3 {
        stroke: none;
      }

      .cls-3 {
        fill: #707070;
      }
    </style>
  </defs>
  <g id="moon" transform="translate(-2816 -3440.063)">
    <g id="Subtraction_3" data-name="Subtraction 3" class="cls-1" transform="translate(2816 3440.063)">
      <path class="cls-2" d="M 105.5581588745117 202.4026184082031 C 98.59788513183594 202.4026184082031 91.64274597167969 201.7015533447266 84.88596343994141 200.3189544677734 C 78.30257415771484 198.9718017578125 71.82694244384766 196.961669921875 65.63888549804688 194.3443603515625 C 59.56266021728516 191.7743988037109 53.7017707824707 188.5932006835938 48.21907806396484 184.8891754150391 C 42.78785705566406 181.2199554443359 37.68041229248047 177.0059509277344 33.03863525390625 172.3642272949219 C 28.39702224731445 167.7226104736328 24.1829948425293 162.6152038574219 20.51357841491699 157.1837768554688 C 16.80960464477539 151.701171875 13.62838363647461 145.8403167724609 11.0583553314209 139.7640075683594 C 8.440994262695313 133.5759735107422 6.430827617645264 127.1003112792969 5.083688735961914 120.5167846679688 C 3.701050043106079 113.7599792480469 2.999994516372681 106.8047790527344 2.999994516372681 99.84442138671875 C 2.999994516372681 88.84042358398438 4.732188701629639 78.01406097412109 8.148438453674316 67.66603088378906 C 11.4524393081665 57.6579475402832 16.27924537658691 48.24042129516602 22.49477195739746 39.6750602722168 C 28.63610649108887 31.21197509765625 36.00418853759766 23.75522613525391 44.3942985534668 17.51200294494629 C 50.70543670654297 12.81576442718506 57.49675369262695 8.880626678466797 64.66061401367188 5.7633376121521 C 57.41823196411133 20.39876174926758 53.62138366699219 36.5456657409668 53.62138366699219 52.93003082275391 C 53.62138366699219 112.7891998291016 103.5904083251953 161.4882049560547 165.0106658935547 161.4882049560547 C 173.2708892822266 161.4882049560547 181.4577484130859 160.6086883544922 189.4396514892578 158.8684539794922 C 185.89697265625 163.8932189941406 181.9029541015625 168.6018371582031 177.5112762451172 172.9261169433594 C 171.3137512207031 179.0285339355469 164.3644104003906 184.3260803222656 156.8563842773438 188.6716156005859 C 149.2232666015625 193.0896148681641 141.0487976074219 196.5012054443359 132.5600280761719 198.8116149902344 C 123.8054656982422 201.1944274902344 114.7207412719727 202.4026184082031 105.5581588745117 202.4026184082031 Z"/>
      <path class="cls-3" d="M 105.5581588745117 199.4026184082031 C 114.4546279907227 199.4026184082031 123.274284362793 198.2298736572266 131.7721557617188 195.9169006347656 C 140.0108795166016 193.674560546875 147.94482421875 190.3633117675781 155.3535919189453 186.0751800537109 C 162.6425628662109 181.8563690185547 169.3893127441406 176.7131805419922 175.4064178466797 170.7884674072266 C 177.850341796875 168.3820495605469 180.1676940917969 165.8527221679688 182.3480682373047 163.2136840820313 C 176.6336822509766 164.0612182617188 170.8393859863281 164.4882202148438 165.0106658935547 164.4882202148438 C 101.9361953735352 164.4882202148438 50.62137985229492 114.4434356689453 50.62137985229492 52.93002700805664 C 50.62137985229492 38.88120651245117 53.33561706542969 25.00377082824707 58.55576324462891 12.05459117889404 C 54.25794982910156 14.36062812805176 50.12556457519531 16.98670387268066 46.18522262573242 19.91877746582031 C 38.03925323486328 25.98037147521973 30.88553619384766 33.22015380859375 24.92284774780273 41.43702697753906 C 18.88934898376465 49.75149536132813 14.20409870147705 58.89265441894531 10.9971923828125 68.60652923583984 C 7.681317329406738 78.65052795410156 6.000004768371582 89.16049957275391 6.000004768371582 99.84443664550781 C 6.000004768371582 106.6033096313477 6.680567264556885 113.3561553955078 8.022754669189453 119.9153747558594 C 9.330254554748535 126.304931640625 11.28116130828857 132.5897827148438 13.82134819030762 138.5953369140625 C 16.31594276428223 144.4932403564453 19.40391159057617 150.1822814941406 22.99944305419922 155.5043792724609 C 26.56203651428223 160.7776489257813 30.6534423828125 165.7364044189453 35.15997314453125 170.2429046630859 C 39.66666030883789 174.7495574951172 44.62541198730469 178.8409271240234 49.89847183227539 182.4033050537109 C 55.22063064575195 185.9988403320313 60.90966033935547 189.0868072509766 66.80756378173828 191.5813751220703 C 72.81316375732422 194.1214904785156 79.09797668457031 196.0724029541016 85.48741149902344 197.3798675537109 C 92.04672241210938 198.7220611572266 98.79950714111328 199.4026184082031 105.5581588745117 199.4026184082031 M 105.5581588745117 205.4026184082031 C 98.39619445800781 205.4026184082031 91.23872375488281 204.6810607910156 84.28456878662109 203.258056640625 C 77.50719451904297 201.8712158203125 70.84066009521484 199.8018341064453 64.47025299072266 197.1074066162109 C 58.21553802490234 194.4618988037109 52.18281555175781 191.1874694824219 46.5396614074707 187.3750610351563 C 40.95013046264648 183.598876953125 35.69400405883789 179.2621917724609 30.91734886169434 174.4855651855469 C 26.1406307220459 169.7088775634766 21.80397415161133 164.4527435302734 18.02772331237793 158.8632507324219 C 14.21525478363037 153.2200622558594 10.94081783294678 147.1873474121094 8.295317649841309 140.9326171875 C 5.60084867477417 134.5622711181641 3.531442403793335 127.8957138061523 2.144567489624023 121.1182174682617 C 0.7215361595153809 114.1639938354492 4.882812390860636e-06 107.0064315795898 4.882812390860636e-06 99.84443664550781 C 4.882812390860636e-06 88.52027893066406 1.783067345619202 77.37749481201172 5.299661159515381 66.72555541992188 C 8.700848579406738 56.42315292358398 13.66919231414795 46.729248046875 20.06669235229492 37.91312026977539 C 26.38678550720215 29.2037467956543 33.96922302246094 21.53005981445313 42.60337829589844 15.10521507263184 C 51.33556747436523 8.607434272766113 60.96084976196289 3.525309085845947 71.21184539794922 -3.295898522992502e-06 C 61.6670036315918 16.00790214538574 56.62137985229492 34.31040191650391 56.62137985229492 52.93002700805664 C 56.62137985229492 111.1349945068359 105.2445983886719 158.4882202148438 165.0106658935547 158.4882202148438 C 175.6115417480469 158.4882202148438 186.0859069824219 157.0014343261719 196.142822265625 154.0692443847656 C 191.5500335693359 161.7251586914063 185.9893493652344 168.7883758544922 179.6161346435547 175.0637817382813 C 173.23828125 181.3437194824219 166.0864105224609 186.795654296875 158.3591918945313 191.2680969238281 C 150.5018157958984 195.8158721923828 142.0867919921875 199.3278045654297 133.3478851318359 201.7063140869141 C 124.3366012573242 204.1589965820313 114.9867858886719 205.4026184082031 105.5581588745117 205.4026184082031 Z"/>
    </g>
  </g>
</svg>
