<?xml version="1.0" encoding="utf-8"?>
<!DOCTYPE svg PUBLIC "-//W3C//DTD SVG 1.1//EN" "http://www.w3.org/Graphics/SVG/1.1/DTD/svg11.dtd">
<svg class="sun" version="1.1" xmlns="http://www.w3.org/2000/svg" xmlns:xlink="http://www.w3.org/1999/xlink" x="0px"
     y="0px" viewBox="0 0 1000 1000" enable-background="new 0 0 1000 1000" xml:space="preserve">
<g><g><g><path d="M505.3,743.5c-134.3,0-243.5-109.2-243.5-243.5c0-134.2,109.2-243.5,243.5-243.5c134.2,0,243.4,109.2,243.4,243.5C748.8,634.3,639.6,743.5,505.3,743.5L505.3,743.5z M505.3,277.7c-122.6,0-222.3,99.7-222.3,222.2c0,122.6,99.7,222.3,222.3,222.3c122.5,0,222.2-99.7,222.2-222.3C727.5,377.4,627.9,277.7,505.3,277.7L505.3,277.7z"/><polygon
        points="515.9,995.3 494.7,995.3 494.7,784.2 515.9,784.2 "/><polygon
        points="515.9,215 494.7,215 494.7,4.7 515.9,4.7 "/><polygon
        points="990,510.6 790.6,510.6 790.6,489.4 990,489.4 "/><polygon
        points="220.6,510.6 10,510.6 10,489.4 220.6,489.4 "/><polygon
        points="798.5,810.6 708,720.1 723,705.1 813.5,795.6 "/><polygon
        points="293.8,305.9 199.9,211.9 214.9,196.9 308.9,290.9 "/><polygon
        points="723,302.4 708,287.4 798.5,196.9 813.5,211.9 "/><polygon
        points="214.9,810.6 199.9,795.6 293.8,701.6 308.9,716.6 "/></g></g>
   </g>
</svg>